<svg width="63" height="60" viewBox="0 0 63 60" fill="none" xmlns="http://www.w3.org/2000/svg">
<path d="M62.6016 0.267126C59.9187 2.96753 55.5366 5.13379 50.1111 6.67688C44.8085 2.34731 38.159 -0.0129624 31.3008 5.35466e-05C24.1762 5.35466e-05 17.6179 2.49273 12.4905 6.67688C7.06504 5.13379 2.68293 2.96753 0 0.267126C0.0894309 5.10411 2.53388 9.52566 6.61789 13.057C3.26211 17.9537 1.47455 23.7472 1.49051 29.6748C1.49051 37.5451 4.63123 45.093 10.2217 50.6581C12.9899 53.4136 16.2762 55.5994 19.8929 57.0907C23.5097 58.582 27.3861 59.3496 31.3008 59.3496C39.207 59.3496 46.7894 56.2232 52.3799 50.6581C57.9704 45.093 61.1111 37.5451 61.1111 29.6748C61.1111 23.5025 59.2331 17.8049 55.9837 13.057C60.0678 9.52566 62.5122 5.10411 62.6016 0.267126ZM17.8862 19.2887L26.8293 23.7399C26.8293 26.1139 24.7425 28.1911 22.3577 28.1911C19.9729 28.1911 17.8862 26.1139 17.8862 23.7399V19.2887ZM31.3008 45.1947C26.084 45.1947 21.4932 43.0285 18.8103 39.8236L23.0434 35.6098C24.3848 37.7464 27.5745 39.2598 31.3008 39.2598C35.0271 39.2598 38.2168 37.7464 39.5583 35.6098L43.7913 39.8236C41.1084 43.0285 36.5176 45.1947 31.3008 45.1947ZM44.7155 23.7399C44.7155 26.1139 42.6287 28.1911 40.2439 28.1911C37.8591 28.1911 35.7724 26.1139 35.7724 23.7399L44.7155 19.2887V23.7399Z" fill="#EC6E5D"/>
</svg>
